<svg width="1920" height="955" xmlns="http://www.w3.org/2000/svg"><g><path d="M-99,-88L-122,814L-102,627Z" fill="#e2e0f9" stroke="#e2e0f9"/><path d="M-99,-88L-102,627L-74,261Z" fill="#fcfcff" stroke="#fcfcff"/><path d="M-99,-88L-74,261L-26,120Z" fill="#ffffff" stroke="#ffffff"/><path d="M-99,-88L-26,120L106,-16Z" fill="#fefdfe" stroke="#fefdfe"/><path d="M-99,-88L106,-16L235,-70Z" fill="#fcfbfd" stroke="#fcfbfd"/><path d="M-99,-88L235,-70L538,-115Z" fill="#f8f7fb" stroke="#f8f7fb"/><path d="M106,-16L-26,120L117,132Z" fill="#fcfbfd" stroke="#fcfbfd"/><path d="M106,-16L117,132L253,65Z" fill="#f9f9fc" stroke="#f9f9fc"/><path d="M106,-16L253,65L235,-70Z" fill="#f8f7fb" stroke="#f8f7fb"/><path d="M235,-70L253,65L431,-50Z" fill="#f4f4f9" stroke="#f4f4f9"/><path d="M235,-70L431,-50L538,-115Z" fill="#f0f0f7" stroke="#f0f0f7"/><path d="M431,-50L253,65L341,102Z" fill="#f3f2f8" stroke="#f3f2f8"/><path d="M431,-50L341,102L529,46Z" fill="#efeff6" stroke="#efeff6"/><path d="M431,-50L529,46L538,-115Z" fill="#ececf5" stroke="#ececf5"/><path d="M538,-115L529,46L624,-42Z" fill="#e8e8f3" stroke="#e8e8f3"/><path d="M538,-115L624,-42L836,-47Z" fill="#e1e2ef" stroke="#e1e2ef"/><path d="M538,-115L836,-47L969,-71Z" fill="#dadaeb" stroke="#dadaeb"/><path d="M538,-115L969,-71L1585,-98Z" fill="#cac8e2" stroke="#cac8e2"/><path d="M538,-115L1585,-98L1676,-108Z" fill="#bdb8da" stroke="#bdb8da"/><path d="M624,-42L529,46L712,17Z" fill="#e4e4f1" stroke="#e4e4f1"/><path d="M624,-42L712,17L836,-47Z" fill="#dedeee" stroke="#dedeee"/><path d="M836,-47L712,17L786,93Z" fill="#dadaeb" stroke="#dadaeb"/><path d="M836,-47L786,93L947,120Z" fill="#d5d4e8" stroke="#d5d4e8"/><path d="M836,-47L947,120L969,-71Z" fill="#d1d0e6" stroke="#d1d0e6"/><path d="M969,-71L947,120L1118,-32Z" fill="#cccae2" stroke="#cccae2"/><path d="M969,-71L1118,-32L1251,-65Z" fill="#c5c4df" stroke="#c5c4df"/><path d="M969,-71L1251,-65L1585,-98Z" fill="#bdb8d9" stroke="#bdb8d9"/><path d="M1118,-32L947,120L1141,57Z" fill="#c8c6e1" stroke="#c8c6e1"/><path d="M1118,-32L1141,57L1251,-65Z" fill="#c2c0de" stroke="#c2c0de"/><path d="M1251,-65L1141,57L1253,65Z" fill="#bfbddc" stroke="#bfbddc"/><path d="M1251,-65L1253,65L1412,-16Z" fill="#bbb5d8" stroke="#bbb5d8"/><path d="M1251,-65L1412,-16L1585,-98Z" fill="#b6aad2" stroke="#b6aad2"/><path d="M1412,-16L1253,65L1462,69Z" fill="#b8aed4" stroke="#b8aed4"/><path d="M1412,-16L1462,69L1585,-98Z" fill="#b2a2ce" stroke="#b2a2ce"/><path d="M1585,-98L1462,69L1560,99Z" fill="#ae9ccb" stroke="#ae9ccb"/><path d="M1585,-98L1560,99L1743,50Z" fill="#a890c6" stroke="#a890c6"/><path d="M1585,-98L1743,50L1676,-108Z" fill="#a68bc3" stroke="#a68bc3"/><path d="M1676,-108L1743,50L1918,-88Z" fill="#9e80bd" stroke="#9e80bd"/><path d="M1918,-88L1743,50L1874,67Z" fill="#9a80b9" stroke="#9a80b9"/><path d="M1918,-88L1874,67L2029,-30Z" fill="#9380b3" stroke="#9380b3"/><path d="M2029,-30L1874,67L2057,63Z" fill="#9080b0" stroke="#9080b0"/><path d="M-26,120L-74,261L106,284Z" fill="#fefdfe" stroke="#fefdfe"/><path d="M-26,120L106,284L117,132Z" fill="#fcfbfd" stroke="#fcfbfd"/><path d="M117,132L106,284L221,267Z" fill="#faf9fc" stroke="#faf9fc"/><path d="M117,132L221,267L253,65Z" fill="#f8f8fb" stroke="#f8f8fb"/><path d="M253,65L221,267L341,102Z" fill="#f6f5fa" stroke="#f6f5fa"/><path d="M341,102L221,267L402,225Z" fill="#f4f3f9" stroke="#f4f3f9"/><path d="M341,102L402,225L529,46Z" fill="#efeff6" stroke="#efeff6"/><path d="M529,46L402,225L490,257Z" fill="#ededf5" stroke="#ededf5"/><path d="M529,46L490,257L729,172Z" fill="#e6e7f2" stroke="#e6e7f2"/><path d="M529,46L729,172L712,17Z" fill="#e2e2f0" stroke="#e2e2f0"/><path d="M712,17L729,172L786,93Z" fill="#dcdded" stroke="#dcdded"/><path d="M786,93L729,172L802,223Z" fill="#dadaec" stroke="#dadaec"/><path d="M786,93L802,223L947,120Z" fill="#d6d5e9" stroke="#d6d5e9"/><path d="M947,120L802,223L993,225Z" fill="#d2d0e6" stroke="#d2d0e6"/><path d="M947,120L993,225L1072,169Z" fill="#cccae2" stroke="#cccae2"/><path d="M947,120L1072,169L1141,57Z" fill="#c9c7e1" stroke="#c9c7e1"/><path d="M1141,57L1072,169L1302,180Z" fill="#c2c0de" stroke="#c2c0de"/><path d="M1141,57L1302,180L1253,65Z" fill="#bebbdb" stroke="#bebbdb"/><path d="M1253,65L1302,180L1462,69Z" fill="#b9b2d6" stroke="#b9b2d6"/><path d="M1462,69L1302,180L1438,209Z" fill="#b7acd3" stroke="#b7acd3"/><path d="M1462,69L1438,209L1560,99Z" fill="#b2a2ce" stroke="#b2a2ce"/><path d="M1560,99L1438,209L1547,253Z" fill="#b09fcd" stroke="#b09fcd"/><path d="M1560,99L1547,253L1727,230Z" fill="#a992c7" stroke="#a992c7"/><path d="M1560,99L1727,230L1743,50Z" fill="#a58ac3" stroke="#a58ac3"/><path d="M1743,50L1727,230L1815,176Z" fill="#9f80be" stroke="#9f80be"/><path d="M1743,50L1815,176L1874,67Z" fill="#9c80bb" stroke="#9c80bb"/><path d="M1874,67L1815,176L2056,195Z" fill="#9580b5" stroke="#9580b5"/><path d="M1874,67L2056,195L2057,63Z" fill="#9080b0" stroke="#9080b0"/><path d="M2057,63L2056,195L2056,1143Z" fill="#6c5ea5" stroke="#6c5ea5"/><path d="M-74,261L-102,627L-66,577Z" fill="#dcdaf6" stroke="#dcdaf6"/><path d="M-74,261L-66,577L-35,320Z" fill="#ecebfd" stroke="#ecebfd"/><path d="M-74,261L-35,320L106,284Z" fill="#f7f7fe" stroke="#f7f7fe"/><path d="M106,284L-35,320L129,329Z" fill="#f2f2fd" stroke="#f2f2fd"/><path d="M106,284L129,329L221,267Z" fill="#f3f2fc" stroke="#f3f2fc"/><path d="M221,267L129,329L209,326Z" fill="#f0effb" stroke="#f0effb"/><path d="M221,267L209,326L402,225Z" fill="#f1f0f9" stroke="#f1f0f9"/><path d="M402,225L209,326L388,428Z" fill="#e8e8f8" stroke="#e8e8f8"/><path d="M402,225L388,428L490,257Z" fill="#e7e7f6" stroke="#e7e7f6"/><path d="M490,257L388,428L512,410Z" fill="#ddddf5" stroke="#ddddf5"/><path d="M490,257L512,410L719,331Z" fill="#dbdbf2" stroke="#dbdbf2"/><path d="M490,257L719,331L729,172Z" fill="#e0e1f0" stroke="#e0e1f0"/><path d="M729,172L719,331L802,223Z" fill="#dbdced" stroke="#dbdced"/><path d="M802,223L719,331L830,361Z" fill="#d1d1eb" stroke="#d1d1eb"/><path d="M802,223L830,361L934,327Z" fill="#cdcce8" stroke="#cdcce8"/><path d="M802,223L934,327L993,225Z" fill="#cfcee6" stroke="#cfcee6"/><path d="M993,225L934,327L1179,324Z" fill="#c3c2e2" stroke="#c3c2e2"/><path d="M993,225L1179,324L1072,169Z" fill="#c7c5e0" stroke="#c7c5e0"/><path d="M1072,169L1179,324L1302,180Z" fill="#c1bfdd" stroke="#c1bfdd"/><path d="M1302,180L1179,324L1238,362Z" fill="#b7b4db" stroke="#b7b4db"/><path d="M1302,180L1238,362L1438,209Z" fill="#b8b1d7" stroke="#b8b1d7"/><path d="M1438,209L1238,362L1466,414Z" fill="#aca2d4" stroke="#aca2d4"/><path d="M1438,209L1466,414L1547,253Z" fill="#ab9ccf" stroke="#ab9ccf"/><path d="M1547,253L1466,414L1553,429Z" fill="#9f8ecc" stroke="#9f8ecc"/><path d="M1547,253L1553,429L1678,348Z" fill="#9d88c8" stroke="#9d88c8"/><path d="M1547,253L1678,348L1727,230Z" fill="#a288c5" stroke="#a288c5"/><path d="M1727,230L1678,348L1894,348Z" fill="#9677be" stroke="#9677be"/><path d="M1727,230L1894,348L1815,176Z" fill="#9a7ebb" stroke="#9a7ebb"/><path d="M1815,176L1894,348L2056,195Z" fill="#9580b4" stroke="#9580b4"/><path d="M2056,195L1894,348L2000,415Z" fill="#8676b0" stroke="#8676b0"/><path d="M2056,195L2000,415L2020,566Z" fill="#796bab" stroke="#796bab"/><path d="M2056,195L2020,566L2056,1143Z" fill="#554298" stroke="#554298"/><path d="M-35,320L-66,577L44,529Z" fill="#dddbf7" stroke="#dddbf7"/><path d="M-35,320L44,529L129,329Z" fill="#e8e7fb" stroke="#e8e7fb"/><path d="M129,329L44,529L209,326Z" fill="#e5e4fa" stroke="#e5e4fa"/><path d="M209,326L44,529L276,581Z" fill="#d7d5f3" stroke="#d7d5f3"/><path d="M209,326L276,581L388,428Z" fill="#d9d6f3" stroke="#d9d6f3"/><path d="M388,428L276,581L434,559Z" fill="#c9c7ed" stroke="#c9c7ed"/><path d="M388,428L434,559L512,410Z" fill="#cfcdef" stroke="#cfcdef"/><path d="M512,410L434,559L561,583Z" fill="#c4c2ea" stroke="#c4c2ea"/><path d="M512,410L561,583L692,496Z" fill="#c1c0e8" stroke="#c1c0e8"/><path d="M512,410L692,496L719,331Z" fill="#cbcbed" stroke="#cbcbed"/><path d="M719,331L692,496L830,361Z" fill="#c7c7ea" stroke="#c7c7ea"/><path d="M830,361L692,496L871,584Z" fill="#b7b5e3" stroke="#b7b5e3"/><path d="M830,361L871,584L971,483Z" fill="#b2afdf" stroke="#b2afdf"/><path d="M830,361L971,483L934,327Z" fill="#bdbce4" stroke="#bdbce4"/><path d="M934,327L971,483L1179,324Z" fill="#b8b6e0" stroke="#b8b6e0"/><path d="M1179,324L971,483L1077,546Z" fill="#aaa7da" stroke="#aaa7da"/><path d="M1179,324L1077,546L1238,362Z" fill="#aaa8da" stroke="#aaa8da"/><path d="M1238,362L1077,546L1231,572Z" fill="#9d99d4" stroke="#9d99d4"/><path d="M1238,362L1231,572L1388,513Z" fill="#9a92d0" stroke="#9a92d0"/><path d="M1238,362L1388,513L1466,414Z" fill="#9e94d0" stroke="#9e94d0"/><path d="M1466,414L1388,513L1579,532Z" fill="#8f7ec6" stroke="#8f7ec6"/><path d="M1466,414L1579,532L1553,429Z" fill="#907cc5" stroke="#907cc5"/><path d="M1553,429L1579,532L1732,513Z" fill="#856cbd" stroke="#856cbd"/><path d="M1553,429L1732,513L1678,348Z" fill="#8c72bf" stroke="#8c72bf"/><path d="M1678,348L1732,513L1894,348Z" fill="#8869ba" stroke="#8869ba"/><path d="M1894,348L1732,513L1889,509Z" fill="#7c60b3" stroke="#7c60b3"/><path d="M1894,348L1889,509L2000,415Z" fill="#7b65af" stroke="#7b65af"/><path d="M2000,415L1889,509L2020,566Z" fill="#6d59a8" stroke="#6d59a8"/><path d="M-66,577L-102,627L20,627Z" fill="#cac7ed" stroke="#cac7ed"/><path d="M-66,577L20,627L44,529Z" fill="#cdcbef" stroke="#cdcbef"/><path d="M44,529L20,627L208,717Z" fill="#c5c0e9" stroke="#c5c0e9"/><path d="M44,529L208,717L276,581Z" fill="#c4c1e9" stroke="#c4c1e9"/><path d="M276,581L208,717L412,722Z" fill="#b9aee0" stroke="#b9aee0"/><path d="M276,581L412,722L434,559Z" fill="#bbb6e4" stroke="#bbb6e4"/><path d="M434,559L412,722L491,681Z" fill="#b5addf" stroke="#b5addf"/><path d="M434,559L491,681L561,583Z" fill="#b7b4e3" stroke="#b7b4e3"/><path d="M561,583L491,681L710,672Z" fill="#ada6dc" stroke="#ada6dc"/><path d="M561,583L710,672L692,496Z" fill="#b0afe0" stroke="#b0afe0"/><path d="M692,496L710,672L871,584Z" fill="#aaa9dd" stroke="#aaa9dd"/><path d="M871,584L710,672L865,691Z" fill="#9f97d3" stroke="#9f97d3"/><path d="M871,584L865,691L951,653Z" fill="#9a92d0" stroke="#9a92d0"/><path d="M871,584L951,653L971,483Z" fill="#a19dd6" stroke="#a19dd6"/><path d="M971,483L951,653L1077,546Z" fill="#9e9bd5" stroke="#9e9bd5"/><path d="M1077,546L951,653L1085,622Z" fill="#9591d0" stroke="#9591d0"/><path d="M1077,546L1085,622L1231,572Z" fill="#9390cf" stroke="#9390cf"/><path d="M1231,572L1085,622L1324,636Z" fill="#8a85ca" stroke="#8a85ca"/><path d="M1231,572L1324,636L1388,513Z" fill="#8b82c8" stroke="#8b82c8"/><path d="M1388,513L1324,636L1463,624Z" fill="#8479c4" stroke="#8479c4"/><path d="M1388,513L1463,624L1579,532Z" fill="#8575c2" stroke="#8575c2"/><path d="M1579,532L1463,624L1616,673Z" fill="#7862b8" stroke="#7862b8"/><path d="M1579,532L1616,673L1732,513Z" fill="#775db6" stroke="#775db6"/><path d="M1732,513L1616,673L1693,688Z" fill="#6e4faf" stroke="#6e4faf"/><path d="M1732,513L1693,688L1908,676Z" fill="#6844a9" stroke="#6844a9"/><path d="M1732,513L1908,676L1889,509Z" fill="#6b4faa" stroke="#6b4faa"/><path d="M1889,509L1908,676L2020,566Z" fill="#624da4" stroke="#624da4"/><path d="M2020,566L1908,676L2008,706Z" fill="#583f9a" stroke="#583f9a"/><path d="M2020,566L2008,706L2009,779Z" fill="#523794" stroke="#523794"/><path d="M2020,566L2009,779L2056,1143Z" fill="#3b137f" stroke="#3b137f"/><path d="M-102,627L-122,814L20,627Z" fill="#c2b6e4" stroke="#c2b6e4"/><path d="M20,627L-122,814L107,794Z" fill="#b9a6dc" stroke="#b9a6dc"/><path d="M20,627L107,794L208,717Z" fill="#bbabde" stroke="#bbabde"/><path d="M208,717L107,794L261,802Z" fill="#b09ad5" stroke="#b09ad5"/><path d="M208,717L261,802L412,722Z" fill="#af9dd6" stroke="#af9dd6"/><path d="M412,722L261,802L394,777Z" fill="#aa95d2" stroke="#aa95d2"/><path d="M412,722L394,777L484,860Z" fill="#a38dce" stroke="#a38dce"/><path d="M412,722L484,860L491,681Z" fill="#a794d2" stroke="#a794d2"/><path d="M491,681L484,860L686,820Z" fill="#9c87ca" stroke="#9c87ca"/><path d="M491,681L686,820L710,672Z" fill="#a192d1" stroke="#a192d1"/><path d="M710,672L686,820L865,691Z" fill="#9989cc" stroke="#9989cc"/><path d="M865,691L686,820L883,872Z" fill="#8b74c0" stroke="#8b74c0"/><path d="M865,691L883,872L951,653Z" fill="#8f7cc5" stroke="#8f7cc5"/><path d="M951,653L883,872L1007,882Z" fill="#8268b9" stroke="#8268b9"/><path d="M951,653L1007,882L1085,622Z" fill="#8a79c3" stroke="#8a79c3"/><path d="M1085,622L1007,882L1174,867Z" fill="#7a62b7" stroke="#7a62b7"/><path d="M1085,622L1174,867L1324,636Z" fill="#8171bf" stroke="#8171bf"/><path d="M1324,636L1174,867L1316,836Z" fill="#7258b2" stroke="#7258b2"/><path d="M1324,636L1316,836L1477,776Z" fill="#7256b1" stroke="#7256b1"/><path d="M1324,636L1477,776L1463,624Z" fill="#7963b8" stroke="#7963b8"/><path d="M1463,624L1477,776L1616,673Z" fill="#7254b1" stroke="#7254b1"/><path d="M1616,673L1477,776L1544,825Z" fill="#6741a6" stroke="#6741a6"/><path d="M1616,673L1544,825L1711,807Z" fill="#6034a0" stroke="#6034a0"/><path d="M1616,673L1711,807L1693,688Z" fill="#643aa4" stroke="#643aa4"/><path d="M1693,688L1711,807L1908,676Z" fill="#5d2e9e" stroke="#5d2e9e"/><path d="M1908,676L1711,807L1929,803Z" fill="#512594" stroke="#512594"/><path d="M1908,676L1929,803L2008,706Z" fill="#502d93" stroke="#502d93"/><path d="M2008,706L1929,803L2009,779Z" fill="#49248c" stroke="#49248c"/><path d="M-122,814L-21,1136L-51,995Z" fill="#9580bb" stroke="#9580bb"/><path d="M-122,814L-51,995L107,794Z" fill="#a688cb" stroke="#a688cb"/><path d="M107,794L-51,995L30,1004Z" fill="#9a7dc1" stroke="#9a7dc1"/><path d="M107,794L30,1004L279,998Z" fill="#977abf" stroke="#977abf"/><path d="M107,794L279,998L261,802Z" fill="#a081c7" stroke="#a081c7"/><path d="M261,802L279,998L394,777Z" fill="#9d7fc6" stroke="#9d7fc6"/><path d="M394,777L279,998L484,860Z" fill="#9677c2" stroke="#9677c2"/><path d="M484,860L279,998L490,940Z" fill="#8c70b9" stroke="#8c70b9"/><path d="M484,860L490,940L686,820Z" fill="#8f71be" stroke="#8f71be"/><path d="M686,820L490,940L691,986Z" fill="#8465b6" stroke="#8465b6"/><path d="M686,820L691,986L778,918Z" fill="#7f5fb4" stroke="#7f5fb4"/><path d="M686,820L778,918L883,872Z" fill="#8163b7" stroke="#8163b7"/><path d="M883,872L778,918L931,953Z" fill="#7554ad" stroke="#7554ad"/><path d="M883,872L931,953L1007,882Z" fill="#724fac" stroke="#724fac"/><path d="M1007,882L931,953L1106,947Z" fill="#694aa6" stroke="#694aa6"/><path d="M1007,882L1106,947L1174,867Z" fill="#6947a7" stroke="#6947a7"/><path d="M1174,867L1106,947L1227,1031Z" fill="#5c419e" stroke="#5c419e"/><path d="M1174,867L1227,1031L1316,836Z" fill="#5e3ba0" stroke="#5e3ba0"/><path d="M1316,836L1227,1031L1468,997Z" fill="#533296" stroke="#533296"/><path d="M1316,836L1468,997L1477,776Z" fill="#5d349e" stroke="#5d349e"/><path d="M1477,776L1468,997L1526,957Z" fill="#522294" stroke="#522294"/><path d="M1477,776L1526,957L1544,825Z" fill="#5a2c9b" stroke="#5a2c9b"/><path d="M1544,825L1526,957L1735,940Z" fill="#4b148e" stroke="#4b148e"/><path d="M1544,825L1735,940L1711,807Z" fill="#4f1891" stroke="#4f1891"/><path d="M1711,807L1735,940L1838,957Z" fill="#410185" stroke="#410185"/><path d="M1711,807L1838,957L1929,803Z" fill="#450d87" stroke="#450d87"/><path d="M1929,803L1838,957L2015,925Z" fill="#37037c" stroke="#37037c"/><path d="M1929,803L2015,925L2009,779Z" fill="#3d1281" stroke="#3d1281"/><path d="M2009,779L2015,925L2056,1143Z" fill="#28006e" stroke="#28006e"/><path d="M-51,995L-21,1136L30,1004Z" fill="#897eb1" stroke="#897eb1"/><path d="M30,1004L-21,1136L85,1121Z" fill="#817daa" stroke="#817daa"/><path d="M30,1004L85,1121L172,1104Z" fill="#817bab" stroke="#817bab"/><path d="M30,1004L172,1104L279,998Z" fill="#8679b0" stroke="#8679b0"/><path d="M279,998L172,1104L421,1114Z" fill="#7c75a8" stroke="#7c75a8"/><path d="M279,998L421,1114L425,1027Z" fill="#7c71aa" stroke="#7c71aa"/><path d="M279,998L425,1027L490,940Z" fill="#8470b2" stroke="#8470b2"/><path d="M425,1027L421,1114L560,1100Z" fill="#736ea3" stroke="#736ea3"/><path d="M425,1027L560,1100L490,940Z" fill="#7b6dab" stroke="#7b6dab"/><path d="M490,940L560,1100L691,986Z" fill="#7767aa" stroke="#7767aa"/><path d="M691,986L560,1100L713,1082Z" fill="#6b63a1" stroke="#6b63a1"/><path d="M691,986L713,1082L778,918Z" fill="#705ea7" stroke="#705ea7"/><path d="M778,918L713,1082L782,1141Z" fill="#665c9f" stroke="#665c9f"/><path d="M778,918L782,1141L931,953Z" fill="#6857a2" stroke="#6857a2"/><path d="M931,953L782,1141L993,1155Z" fill="#575194" stroke="#575194"/><path d="M931,953L993,1155L1106,947Z" fill="#5b4a99" stroke="#5b4a99"/><path d="M1106,947L993,1155L1149,1181Z" fill="#4b468c" stroke="#4b468c"/><path d="M1106,947L1149,1181L1227,1031Z" fill="#4c418f" stroke="#4c418f"/><path d="M1227,1031L1149,1181L1244,1148Z" fill="#403e84" stroke="#403e84"/><path d="M1227,1031L1244,1148L1382,1128Z" fill="#3e3783" stroke="#3e3783"/><path d="M1227,1031L1382,1128L1468,997Z" fill="#423087" stroke="#423087"/><path d="M1468,997L1382,1128L1630,1136Z" fill="#36227b" stroke="#36227b"/><path d="M1468,997L1630,1136L1526,957Z" fill="#3b1c80" stroke="#3b1c80"/><path d="M1526,957L1630,1136L1735,940Z" fill="#39117d" stroke="#39117d"/><path d="M1735,940L1630,1136L1674,1174Z" fill="#2a0a70" stroke="#2a0a70"/><path d="M1735,940L1674,1174L1855,1096Z" fill="#27016d" stroke="#27016d"/><path d="M1735,940L1855,1096L1838,957Z" fill="#2f0074" stroke="#2f0074"/><path d="M1838,957L1855,1096L2015,925Z" fill="#29006f" stroke="#29006f"/><path d="M2015,925L1855,1096L2056,1143Z" fill="#1b0062" stroke="#1b0062"/><path d="M-21,1136L1149,1181L782,1141Z" fill="#636494" stroke="#636494"/><path d="M-21,1136L782,1141L421,1114Z" fill="#71719e" stroke="#71719e"/><path d="M-21,1136L421,1114L85,1121Z" fill="#7a79a3" stroke="#7a79a3"/><path d="M85,1121L421,1114L172,1104Z" fill="#7877a3" stroke="#7877a3"/><path d="M421,1114L782,1141L560,1100Z" fill="#67679a" stroke="#67679a"/><path d="M560,1100L782,1141L713,1082Z" fill="#616199" stroke="#616199"/><path d="M782,1141L1149,1181L993,1155Z" fill="#4e4c86" stroke="#4e4c86"/><path d="M1149,1181L1674,1174L1382,1128Z" fill="#372c75" stroke="#372c75"/><path d="M1149,1181L1382,1128L1244,1148Z" fill="#3e397d" stroke="#3e397d"/><path d="M1382,1128L1674,1174L1630,1136Z" fill="#2d196e" stroke="#2d196e"/><path d="M1674,1174L2056,1143L1855,1096Z" fill="#19005d" stroke="#19005d"/></g></svg>